HIERARCHY
ROOT Hips
{
	OFFSET 0.000000 0.000000 0.000000
	CHANNELS 6 Xposition Yposition Zposition Zrotation Yrotation Xrotation 
	JOINT LowerBack
	{
		OFFSET 0.000000 0.000000 0.000000
		CHANNELS 3 Zrotation Yrotation Xrotation
		JOINT Spine
		{
			OFFSET 0.028270 2.035590 -0.193380
			CHANNELS 3 Zrotation Yrotation Xrotation
			JOINT Spine1
			{
				OFFSET 0.056720 2.048850 -0.042750
				CHANNELS 3 Zrotation Yrotation Xrotation
				JOINT Neck
				{
					OFFSET 0.000000 0.000000 0.000000
					CHANNELS 3 Zrotation Yrotation Xrotation
					JOINT Neck1
					{
						OFFSET -0.054170 1.746240 0.172020
						CHANNELS 3 Zrotation Yrotation Xrotation
						JOINT Head
						{
							OFFSET 0.104070 1.761360 -0.123970
							CHANNELS 3 Zrotation Yrotation Xrotation
							End Site
							{
								OFFSET 0.000000 0.000000 0.000000
							}
						}
					}
				}
				JOINT LeftShoulder
				{
					OFFSET 0.000000 0.000000 0.000000
					CHANNELS 3 Zrotation Yrotation Xrotation
					JOINT LeftArm
					{
						OFFSET 3.362410 1.200890 -0.311210
						CHANNELS 3 Zrotation Yrotation Xrotation
						JOINT LeftForeArm
						{
							OFFSET 4.983000 -0.000000 -0.000000
							CHANNELS 3 Zrotation Yrotation Xrotation
							JOINT LeftHand
							{
								OFFSET 3.483560 -0.000000 -0.000000
								CHANNELS 3 Zrotation Yrotation Xrotation
								JOINT LeftFingerBase
								{
									OFFSET 0.000000 0.000000 0.000000
									CHANNELS 3 Zrotation Yrotation Xrotation
									JOINT LeftHandIndex1
									{
										OFFSET 0.715260 -0.000000 -0.000000
										CHANNELS 3 Zrotation Yrotation Xrotation
										End Site
										{
											OFFSET 0.000000 0.000000 0.000000
										}
									}
								}
								JOINT LThumb
								{
									OFFSET 0.000000 0.000000 0.000000
									CHANNELS 3 Zrotation Yrotation Xrotation
									End Site
									{
										OFFSET 0.000000 0.000000 0.000000
									}
								}
							}
						}
					}
				}
				JOINT RightShoulder
				{
					OFFSET 0.000000 0.000000 0.000000
					CHANNELS 3 Zrotation Yrotation Xrotation
					JOINT RightArm
					{
						OFFSET -3.136600 1.374050 -0.404650
						CHANNELS 3 Zrotation Yrotation Xrotation
						JOINT RightForeArm
						{
							OFFSET -5.241900 -0.000000 -0.000000
							CHANNELS 3 Zrotation Yrotation Xrotation
							JOINT RightHand
							{
								OFFSET -3.444170 -0.000000 -0.000000
								CHANNELS 3 Zrotation Yrotation Xrotation
								JOINT RightFingerBase
								{
									OFFSET 0.000000 0.000000 0.000000
									CHANNELS 3 Zrotation Yrotation Xrotation
									JOINT RightHandIndex1
									{
										OFFSET -0.622530 -0.000000 -0.000000
										CHANNELS 3 Zrotation Yrotation Xrotation
										End Site
										{
											OFFSET 0.000000 0.000000 0.000000
										}
									}
								}
								JOINT RThumb
								{
									OFFSET 0.000000 0.000000 0.000000
									CHANNELS 3 Zrotation Yrotation Xrotation
									End Site
									{
										OFFSET 0.000000 0.000000 0.000000
									}
								}
							}
						}
					}
				}
			}
		}
	}
}
}
MOTION
Frames: 12
Frame Time: 0.008333
3.448485 17.020358 -2.366825 -146.136485 84.362619 -139.254873 5.876723 -6.081069 -6.234454 1.114114 -6.780971 -3.744591 -5.301041 -6.831103 1.694235 9.231626 -19.941613 -9.673867 -3.126718 -0.226789 -0.439913 0.000000 0.000000 0.000000 -3.907360 4.634258 0.052927 -70.208355 -6.999076 1.999634 -2.329221 -47.373426 -0.022360 7.921223 -1.545130 -0.120796 -0.091239 0.196066 0.000000 0.000000 0.000000 0.000000 0.000000 0.000000 0.000000 15.820600 -19.623484 0.063469 58.714599 -8.643815 -16.675577 3.277147 32.691161 0.005121 -3.418848 3.090339 -0.097828 0.148700 -0.064417 -0.000000 0.000000 0.000000 0.000000 0.000000 0.000000 0.000000 
3.617458 17.033292 -2.402810 -144.410278 83.799805 -137.741667 6.236036 -5.970092 -6.046024 1.154943 -6.697470 -3.716797 -5.385419 -6.744619 1.683146 9.386311 -19.795716 -9.729746 -3.162305 -0.229155 -0.456920 0.000000 0.000000 0.000000 -3.801961 4.856891 0.048510 -70.898833 -6.504186 1.970860 -2.319062 -46.737707 -0.022187 8.051447 -1.494712 -0.118850 -0.090428 0.190180 0.000000 0.000000 0.000000 0.000000 0.000000 0.000000 0.000000 16.098882 -19.398060 0.053757 58.964720 -7.952478 -16.163377 3.276134 32.617458 0.005244 -3.499426 3.213216 -0.103920 0.147532 -0.065353 -0.000000 0.000000 0.000000 0.000000 0.000000 0.000000 0.000000 
3.782408 17.046106 -2.436271 -143.383649 83.232519 -136.908658 6.534563 -5.855645 -5.855639 1.179725 -6.604430 -3.686102 -5.482320 -6.648173 1.674810 9.565605 -19.637922 -9.784797 -3.200499 -0.231725 -0.473710 0.000000 0.000000 0.000000 -3.681082 5.088024 0.047972 -71.505696 -6.006252 2.063455 -2.308042 -46.133441 -0.021893 8.163854 -1.443185 -0.116400 -0.089736 0.184101 0.000000 0.000000 0.000000 0.000000 0.000000 0.000000 0.000000 16.409568 -19.153979 0.043611 59.284985 -7.248122 -15.636861 3.273014 32.544044 0.005403 -3.597737 3.366190 -0.111710 0.146334 -0.066498 -0.000000 0.000000 0.000000 0.000000 0.000000 0.000000 0.000000 
3.943568 17.059070 -2.467332 -142.924222 82.662333 -136.619533 6.775668 -5.737385 -5.672014 1.189607 -6.502411 -3.655433 -5.590194 -6.542410 1.665751 9.758679 -19.458778 -9.831372 -3.241624 -0.234636 -0.488133 0.000000 0.000000 0.000000 -3.559112 5.311365 0.051920 -72.016882 -5.484721 2.272109 -2.296442 -45.577780 -0.021440 8.245874 -1.388794 -0.113145 -0.089034 0.177785 0.000000 0.000000 0.000000 0.000000 0.000000 0.000000 0.000000 16.737755 -18.882435 0.034132 59.680208 -6.545261 -15.120465 3.267689 32.466289 0.005605 -3.715062 3.555351 -0.121598 0.145125 -0.067959 -0.000000 0.000000 0.000000 0.000000 0.000000 0.000000 0.000000 
4.101219 17.072435 -2.495860 -142.997786 82.097608 -136.837808 6.946273 -5.616338 -5.498768 1.182339 -6.391735 -3.624788 -5.707900 -6.427723 1.658763 9.964712 -19.259074 -9.870329 -3.285715 -0.237872 -0.500462 0.000000 0.000000 0.000000 -3.441812 5.547880 0.060252 -72.427039 -4.964527 2.612079 -2.286814 -45.054553 -0.020809 8.288734 -1.332928 -0.109284 -0.088395 0.171243 0.000000 0.000000 0.000000 0.000000 0.000000 0.000000 0.000000 17.087252 -18.584002 0.022655 60.140151 -5.847541 -14.596691 3.258838 32.387248 0.005830 -3.868894 3.781123 -0.134384 0.144012 -0.069717 -0.000000 0.000000 0.000000 0.000000 0.000000 0.000000 0.000000 
4.255600 17.086346 -2.522127 -143.502487 81.533859 -137.459440 7.053405 -5.492324 -5.341795 1.160143 -6.273342 -3.596652 -5.833125 -6.305226 1.650030 10.172016 -19.030725 -9.895226 -3.332530 -0.241499 -0.508901 0.000000 0.000000 0.000000 -3.339712 5.779388 0.073521 -72.732549 -4.425282 3.063102 -2.278877 -44.577876 -0.019992 8.283383 -1.272711 -0.104318 -0.087668 0.164451 0.000000 0.000000 0.000000 0.000000 0.000000 0.000000 0.000000 17.440555 -18.251620 0.010939 60.668182 -5.165533 -14.084189 3.246383 32.301794 0.006067 -4.057534 4.042144 -0.150368 0.142996 -0.071834 -0.000000 0.000000 0.000000 0.000000 0.000000 0.000000 0.000000 
4.406944 17.100817 -2.546398 -144.374608 80.966983 -138.420231 7.098872 -5.365785 -5.203577 1.124193 -6.148127 -3.572010 -5.963530 -6.175991 1.638421 10.372930 -18.771408 -9.903879 -3.381445 -0.245489 -0.512869 0.000000 0.000000 0.000000 -3.258389 6.002854 0.091900 -72.936194 -3.866695 3.610008 -2.273056 -44.146525 -0.018999 8.225176 -1.206632 -0.098248 -0.086800 0.157420 0.000000 0.000000 0.000000 0.000000 0.000000 0.000000 0.000000 17.787105 -17.883734 -0.000638 61.261425 -4.503104 -13.582110 3.229903 32.207731 0.006292 -4.283352 4.332517 -0.169752 0.142103 -0.074306 -0.000000 0.000000 0.000000 0.000000 0.000000 0.000000 0.000000 
4.555402 17.115778 -2.568928 -145.557861 80.391204 -139.665475 7.084994 -5.237361 -5.082807 1.075789 -6.016961 -3.550526 -6.096593 -6.041052 1.625112 10.562304 -18.480320 -9.897603 -3.431404 -0.249721 -0.512816 0.000000 0.000000 0.000000 -3.199249 6.231419 0.115627 -73.046606 -3.309514 4.244672 -2.270546 -43.742574 -0.017857 8.114262 -1.135425 -0.091373 -0.085840 0.150214 0.000000 0.000000 0.000000 0.000000 0.000000 0.000000 0.000000 18.119996 -17.479571 -0.012879 61.912349 -3.862269 -13.078689 3.208742 32.108741 0.006474 -4.547831 4.641796 -0.192734 0.141351 -0.077081 -0.000000 0.000000 0.000000 0.000000 0.000000 0.000000 0.000000 
4.701093 17.131046 -2.590237 -146.972002 79.795386 -141.117251 7.022322 -5.106943 -4.978296 1.017927 -5.880589 -3.532732 -6.229429 -5.901335 1.608239 10.731503 -18.156347 -9.875057 -3.481225 -0.254104 -0.508418 0.000000 0.000000 0.000000 -3.164700 6.456918 0.144974 -73.074240 -2.751027 4.939230 -2.270955 -43.363268 -0.016602 7.953585 -1.057857 -0.083594 -0.084744 0.142869 0.000000 0.000000 0.000000 0.000000 0.000000 0.000000 0.000000 18.424676 -17.038829 -0.024464 62.618447 -3.244029 -12.573681 3.183115 32.004777 0.006587 -4.841201 4.957907 -0.218715 0.140706 -0.080133 -0.000000 0.000000 0.000000 0.000000 0.000000 0.000000 0.000000 
4.844080 17.146351 -2.610836 -148.539863 79.168357 -142.702346 6.921979 -4.974209 -4.886732 0.953610 -5.739417 -3.518344 -6.359177 -5.757379 1.587441 10.874242 -17.801236 -9.837382 -3.529562 -0.258500 -0.500061 0.000000 0.000000 0.000000 -3.154101 6.680032 0.179988 -73.033682 -2.201057 5.671010 -2.274260 -42.995939 -0.015281 7.751013 -0.974161 -0.075212 -0.083542 0.135451 0.000000 0.000000 0.000000 0.000000 0.000000 0.000000 0.000000 18.690333 -16.563551 -0.034873 63.372292 -2.647268 -12.059637 3.153315 31.900138 0.006607 -5.151698 5.266998 -0.246795 0.140129 -0.083409 -0.000000 0.000000 0.000000 0.000000 0.000000 0.000000 0.000000 
4.984388 17.161464 -2.631269 -150.182013 78.499514 -144.347216 6.796067 -4.838291 -4.801930 0.885763 -5.593177 -3.506454 -6.483417 -5.608991 1.562565 10.985973 -17.416753 -9.786326 -3.575238 -0.262772 -0.488318 0.000000 0.000000 0.000000 -3.165162 6.903413 0.220763 -72.941330 -1.672672 6.417465 -2.280474 -42.623647 -0.013945 7.518382 -0.885271 -0.066528 -0.082299 0.128027 0.000000 0.000000 0.000000 0.000000 0.000000 0.000000 0.000000 18.908647 -16.055404 -0.043852 64.164502 -2.071035 -11.526890 3.119783 31.803056 0.006519 -5.464375 5.556017 -0.275675 0.139567 -0.086858 -0.000000 0.000000 0.000000 0.000000 0.000000 0.000000 0.000000 
5.122045 17.176154 -2.652084 -151.819278 77.778992 -145.974877 6.660274 -4.697371 -4.723315 0.818028 -5.441244 -3.497854 -6.599419 -5.455602 1.530851 11.060971 -17.014195 -9.721696 -3.616963 -0.266826 -0.473069 0.000000 0.000000 0.000000 -3.198766 7.100501 0.266172 -72.810965 -1.143902 7.134794 -2.287633 -42.255668 -0.012638 7.268472 -0.789790 -0.057743 -0.080931 0.120594 0.000000 0.000000 0.000000 0.000000 0.000000 0.000000 0.000000 19.067771 -15.527332 -0.048754 64.986208 -1.503617 -10.969410 3.084387 31.710692 0.006328 -5.757877 5.814689 -0.303756 0.138971 -0.090452 -0.000000 0.000000 0.000000 0.000000 0.000000 0.000000 0.000000 
